<svg width="8" height="8" viewBox="0 0 8 8" fill="none" xmlns="http://www.w3.org/2000/svg">
<path d="M2.89237 3.15063L2.35896 2.22714L4.85894 0.783772L6.3021 3.28341L5.37834 3.81675L4.47004 2.2341L2.89237 3.15063ZM1.31588 4.06059L0.776578 3.13551L1.69973 2.6023L2.23314 3.5258L1.31588 4.06059ZM3.80213 4.72677L3.26726 3.80978L4.19103 3.27645L4.72582 4.19371L3.80247 4.72658L3.80213 4.72677ZM6.28863 5.39303L5.76139 4.47119L6.67666 3.94276L7.21206 4.85989L6.28863 5.39303ZM3.13553 7.21348L1.69078 4.71974L2.6144 4.18694L3.52443 5.76315L5.1021 4.84662L5.6355 5.77012L3.13587 7.21328L3.13553 7.21348Z" fill="white"/>
</svg>
