<svg width="10" height="12" viewBox="0 0 10 12" fill="none" xmlns="http://www.w3.org/2000/svg">
<path d="M5.81939 1.35934L5.72041 1.54914L4.63516 7.40999L4.68575 7.48148L7.80265 6.43082L5.81939 1.35934Z" fill="#343434"/>
<path d="M5.81937 1.35896L2.16438 5.31555L4.68573 7.48111L5.21248 4.63644L5.81937 1.35896Z" fill="#8C8C8C"/>
<path d="M4.59035 7.99624L4.54809 8.0302L4.1615 10.118L4.17809 10.2226L7.70877 6.94672L4.59035 7.99624Z" fill="#3C3C3B"/>
<path d="M4.17809 10.2229L4.59035 7.99653L2.06885 5.83179L4.17809 10.2229Z" fill="#8C8C8C"/>
<path d="M4.68566 7.48135L7.80251 6.43071L5.2124 4.63672L4.68566 7.48135Z" fill="#141414"/>
<path d="M2.16458 5.3159L4.68589 7.48142L5.21264 4.63678L2.16458 5.3159Z" fill="#393939"/>
</svg>
