<svg width="6" height="8" viewBox="0 0 6 8" fill="none" xmlns="http://www.w3.org/2000/svg">
<path d="M5.49908 3.52795C5.60839 2.78467 5.04437 2.38243 4.26612 2.11572L4.51971 1.10574L3.9076 0.952717L3.66276 1.93646C3.50099 1.89711 3.33484 1.85776 3.1687 1.82279L3.41354 0.834668L2.80143 0.681641L2.55222 1.68725C2.41668 1.65664 2.28551 1.62604 2.15872 1.59543V1.59106L1.31051 1.38119L1.14874 2.03702C1.14874 2.03702 1.60345 2.14196 1.5947 2.14633C1.84392 2.20754 1.88764 2.37368 1.8789 2.50485L1.59033 3.65474C1.60782 3.65911 1.62968 3.66348 1.65592 3.6766C1.63405 3.67223 1.61219 3.66786 1.59033 3.65911L1.18809 5.26808C1.15748 5.34241 1.07878 5.45609 0.908269 5.41236C0.912641 5.42111 0.462304 5.30306 0.462304 5.30306L0.15625 6.00698L0.956363 6.20811C1.10502 6.24746 1.2493 6.28243 1.39358 6.32178L1.14 7.34051L1.7521 7.49353L2.00569 6.48355C2.17184 6.52728 2.33798 6.571 2.49538 6.61035L2.24616 7.61596L2.85827 7.76898L3.11186 6.75026C4.16119 6.94701 4.94819 6.86831 5.2761 5.91954C5.5428 5.15878 5.26298 4.71718 4.71209 4.42862C5.1187 4.3368 5.42038 4.0701 5.49908 3.52795ZM4.09561 5.49544C3.9076 6.2562 2.62217 5.84521 2.20681 5.74028L2.54347 4.38927C2.95883 4.4942 4.29673 4.6997 4.09561 5.49544ZM4.28798 3.51483C4.11309 4.21001 3.04628 3.85586 2.70087 3.76842L3.00693 2.5442C3.35233 2.63164 4.46724 2.79342 4.28798 3.51483Z" fill="#312E52"/>
</svg>
