<svg aria-hidden="true" xmlns="http://www.w3.org/2000/svg" xmlns:xlink="http://www.w3.org/1999/xlink"><symbol viewBox="0 0 8 8" id="binance-icon" xmlns="http://www.w3.org/2000/svg">
<path d="M2.89237 3.15063L2.35896 2.22714L4.85894 0.783772L6.3021 3.28341L5.37834 3.81675L4.47004 2.2341L2.89237 3.15063ZM1.31588 4.06059L0.776578 3.13551L1.69973 2.6023L2.23314 3.5258L1.31588 4.06059ZM3.80213 4.72677L3.26726 3.80978L4.19103 3.27645L4.72582 4.19371L3.80247 4.72658L3.80213 4.72677ZM6.28863 5.39303L5.76139 4.47119L6.67666 3.94276L7.21206 4.85989L6.28863 5.39303ZM3.13553 7.21348L1.69078 4.71974L2.6144 4.18694L3.52443 5.76315L5.1021 4.84662L5.6355 5.77012L3.13587 7.21328L3.13553 7.21348Z"/>
</symbol><symbol viewBox="0 0 10 12" id="ethereum-icon" xmlns="http://www.w3.org/2000/svg">
<path d="M5.81939 1.35934L5.72041 1.54914L4.63516 7.40999L4.68575 7.48148L7.80265 6.43082L5.81939 1.35934Z"/>
<path d="M5.81937 1.35896L2.16438 5.31555L4.68573 7.48111L5.21248 4.63644L5.81937 1.35896Z"/>
<path d="M4.59035 7.99624L4.54809 8.0302L4.1615 10.118L4.17809 10.2226L7.70877 6.94672L4.59035 7.99624Z"/>
<path d="M4.17809 10.2229L4.59035 7.99653L2.06885 5.83179L4.17809 10.2229Z"/>
<path d="M4.68566 7.48135L7.80251 6.43071L5.2124 4.63672L4.68566 7.48135Z"/>
<path d="M2.16458 5.3159L4.68589 7.48142L5.21264 4.63678L2.16458 5.3159Z"/>
</symbol><symbol viewBox="0 0 13 24" id="facebook" xmlns="http://www.w3.org/2000/svg">
<path d="M9.99726 3.98524H12.1883V0.169244C11.8103 0.117244 10.5103 0.000244141 8.99626 0.000244141C5.83726 0.000244141 3.67326 1.98724 3.67326 5.63924V9.00024H0.187256V13.2662H3.67326V24.0002H7.94726V13.2672H11.2923L11.8233 9.00124H7.94626V6.06224C7.94726 4.82924 8.27926 3.98524 9.99726 3.98524Z"/>
</symbol><symbol viewBox="0 0 52 50" id="icon-1" xmlns="http://www.w3.org/2000/svg">
<path d="M49.8232 9.48015H45.4626V1.53715C45.4626 0.865784 44.9161 0.321411 44.2422 0.321411C43.5683 0.321411 43.0219 0.865784 43.0219 1.53715V9.48015H38.5637C37.8931 9.48883 37.3521 10.0278 37.3434 10.6959V39.8736C37.3434 40.545 37.8893 41.0893 38.5637 41.0893H42.9733V48.4484H42.9728C42.9728 49.1197 43.5192 49.6641 44.1931 49.6641C44.8676 49.6641 45.4135 49.1197 45.4135 48.4484V41.1214H49.8231C50.497 41.1214 51.0434 40.5776 51.0434 39.9057V10.728C51.0478 10.4012 50.9219 10.0865 50.6931 9.85254C50.4643 9.61808 50.151 9.48457 49.8231 9.48022L49.8232 9.48015ZM48.6028 38.6579H39.7842V11.9116H48.6034L48.6028 38.6579Z"/>
<path d="M31.5668 13.0955H27.1572V1.53776C27.1572 0.866394 26.6107 0.322021 25.9368 0.322021C25.2629 0.322021 24.7165 0.866394 24.7165 1.53776V13.0955H20.3069C19.633 13.0955 19.0865 13.6398 19.0865 14.3112V43.4889C19.0953 44.1565 19.6368 44.6959 20.3069 44.7046H24.7165V48.449C24.7165 49.1203 25.2629 49.6647 25.9368 49.6647C26.6107 49.6647 27.1572 49.1203 27.1572 48.449V44.7371H31.5668C32.2369 44.7285 32.7784 44.189 32.7871 43.5214V14.3437C32.7958 14.0153 32.6711 13.6979 32.4412 13.4628C32.2113 13.2278 31.8958 13.0955 31.5668 13.0955ZM30.3464 42.2732H21.5273V15.5269H30.3464V42.2732Z"/>
<path d="M13.3089 10.032H8.89986V1.53813C8.89986 0.86676 8.35342 0.322388 7.67951 0.322388C7.00505 0.322388 6.45916 0.86676 6.45916 1.53813V10.032H2.04957C1.37566 10.032 0.829224 10.5764 0.829224 11.2478V40.4255C0.83794 41.0936 1.37893 41.6325 2.04957 41.6412H6.4102V48.4493C6.4102 49.1207 6.95664 49.6651 7.63055 49.6651C8.30447 49.6651 8.8509 49.1207 8.8509 48.4493V41.6412H13.2605C13.9306 41.6325 14.4721 41.0936 14.4808 40.4255V11.2478C14.4814 10.5949 13.9637 10.0581 13.3089 10.032ZM12.0885 39.2097H3.26993V12.4635H12.0891L12.0885 39.2097Z"/>
</symbol><symbol viewBox="0 0 62 62" id="icon-2" xmlns="http://www.w3.org/2000/svg">
<path fill-rule="evenodd" clip-rule="evenodd" d="M38.8694 36.08C39.0561 37.6131 38.6475 39.0087 37.6894 40.1176C36.4348 41.5675 34.2601 42.4945 31.8067 42.6617V45.0128C31.8067 45.4637 31.4408 45.8296 30.9895 45.8296C30.5386 45.8296 30.1727 45.4637 30.1727 45.0128V42.6524C27.1093 42.3741 23.9646 40.6601 23.0892 37.1494C22.9802 36.711 23.2457 36.269 23.6841 36.1592C24.1238 36.0499 24.5644 36.3166 24.6747 36.7541C25.439 39.821 28.5121 41.1336 31.2602 41.062C32.964 41.0216 35.224 40.4716 36.4538 39.0501C37.1123 38.2885 37.3786 37.3566 37.2479 36.2767C36.9473 33.798 34.9817 32.3921 30.8779 31.7185C26.3397 30.9728 23.9593 28.9881 23.8054 25.8198C23.6578 22.796 25.7972 20.2572 29.1291 19.5014C29.4666 19.4249 29.8169 19.3737 30.1735 19.3386V16.9715C30.1735 16.5206 30.5394 16.1556 30.9903 16.1556C31.4416 16.1556 31.8075 16.5206 31.8075 16.9715V19.331C34.3792 19.56 37.0015 20.9343 38.2659 23.9447C38.4407 24.3609 38.2459 24.8393 37.8302 25.0136C37.4127 25.1888 36.9356 24.9931 36.7605 24.5774C35.4088 21.358 32.0449 20.5154 29.4915 21.0935C27.5388 21.5363 25.3046 23.0196 25.4366 25.7406C25.55 28.0659 27.4174 29.494 31.1428 30.1062C32.9106 30.3956 38.2865 31.2792 38.8694 36.08ZM30.9904 48.7586C40.7879 48.7586 48.7578 40.7885 48.7578 30.9922C48.7578 21.1938 40.7877 13.2236 30.9904 13.2236C21.1938 13.2236 13.2229 21.1937 13.2229 30.9911C13.2229 40.7885 21.1939 48.7586 30.9904 48.7586ZM30.9904 11.5903C20.2925 11.5903 11.5895 20.2936 11.5895 30.9911C11.5895 41.6889 20.292 50.3919 30.9904 50.3919C41.6887 50.3919 50.3912 41.6886 50.3912 30.9911C50.3912 20.2936 41.6883 11.5903 30.9904 11.5903ZM59.5674 33.3677V28.6143L55.168 26.9198C54.9057 26.8198 54.7145 26.5904 54.6603 26.3156C54.0436 23.1739 52.8218 20.2297 51.0318 17.5625C50.8753 17.3295 50.849 17.0325 50.9633 16.7755L52.8787 12.4632L49.5179 9.10241L45.2034 11.0178C44.9473 11.1312 44.6498 11.1063 44.4173 10.9493C41.7509 9.15846 38.8063 7.93841 35.6655 7.32128C35.3907 7.26703 35.1617 7.0754 35.0613 6.81353L33.3677 2.41412H28.6143L26.9194 6.81535C26.8194 7.07768 26.5899 7.26886 26.3152 7.3231C23.1748 7.93934 20.2306 9.15983 17.5633 10.9511C17.3308 11.1076 17.0334 11.133 16.7773 11.0196L12.4628 9.10423L9.10197 12.465L11.0187 16.7786C11.1321 17.0347 11.1063 17.3317 10.9503 17.5647C9.15893 20.2311 7.93843 23.1753 7.32175 26.3165C7.2675 26.5913 7.07677 26.8203 6.81445 26.9207L2.41412 28.6143V33.3677L6.81354 35.0621C7.07586 35.1622 7.26705 35.3903 7.32128 35.6664C7.93796 38.8076 9.15972 41.7523 10.9498 44.4194C11.1063 44.652 11.1325 44.9494 11.0183 45.2051L9.10287 49.5183L12.4637 52.8791L16.7782 50.9628C17.0343 50.8495 17.3317 50.8752 17.5642 51.0313C20.2306 52.8226 23.1753 54.0431 26.3161 54.6584C26.5908 54.7127 26.8198 54.9043 26.9203 55.1662L28.6152 59.5674H33.3686L35.0635 55.1688C35.1636 54.9065 35.3916 54.7153 35.6677 54.6611C38.809 54.0444 41.7536 52.8226 44.42 51.0326C44.6526 50.8761 44.95 50.8511 45.2061 50.9641L49.5193 52.8795L52.8801 49.5187L50.9639 45.2042C50.8505 44.9481 50.8763 44.6506 51.0323 44.4181C52.8236 41.7517 54.0441 38.8071 54.6595 35.6663C54.7137 35.3915 54.9053 35.1625 55.1681 35.062L59.5674 33.3677ZM60.6776 27.2911L56.1714 25.5562C55.5187 22.5146 54.3316 19.6504 52.6372 17.0313L54.5983 12.6144C54.7366 12.3059 54.6681 11.9444 54.4298 11.7057L50.2762 7.55118C50.0366 7.31286 49.6756 7.24529 49.3675 7.38178L44.9494 9.34428C42.3292 7.64983 39.4664 6.46279 36.4257 5.81048L34.6908 1.30293C34.569 0.988594 34.2653 0.780518 33.9283 0.780518H28.0541C27.7162 0.780518 27.4134 0.98815 27.2911 1.30383L25.5563 5.81138C22.5155 6.46319 19.6523 7.65073 17.0325 9.34518L12.6145 7.38268C12.305 7.2453 11.944 7.31287 11.7057 7.55208L7.5512 11.7066C7.31288 11.9458 7.24442 12.3068 7.38269 12.6153L9.34519 17.0326C7.65028 19.6519 6.46233 22.5156 5.81093 25.5564L1.30339 27.2912C0.988605 27.4126 0.780518 27.7154 0.780518 28.0533V33.9279C0.780518 34.2658 0.98815 34.5686 1.30293 34.6896L5.80911 36.4244C6.46181 39.4651 7.64892 42.3289 9.34337 44.9491L7.38223 49.3663C7.24396 49.6744 7.31243 50.0364 7.55075 50.2747L11.7052 54.4292C11.9435 54.6675 12.3046 54.7346 12.614 54.5977L17.0321 52.6352C19.6523 54.3301 22.5151 55.5167 25.5558 56.1694L27.2907 60.677C27.4121 60.9922 27.7157 61.1994 28.0536 61.1994H33.9278C34.2657 61.1994 34.5685 60.9917 34.6899 60.677L36.4248 56.1708C39.4655 55.5181 42.3301 54.331 44.9494 52.6365L49.3667 54.5977C49.6748 54.7346 50.0358 54.6675 50.2755 54.4292L54.429 50.2747C54.6673 50.0364 54.7358 49.674 54.5975 49.3663L52.6359 44.9491C54.3309 42.3289 55.5174 39.4661 56.1702 36.4253L60.6777 34.6905C60.993 34.5695 61.2002 34.2663 61.2002 33.9288V28.0542C61.2011 27.7154 60.993 27.4126 60.6777 27.2912L60.6776 27.2911Z"/>
</symbol><symbol viewBox="0 0 68 36" id="icon-3" xmlns="http://www.w3.org/2000/svg">
<path d="M65.6829 3.25617L57.3269 11.5812C56.4136 11.0056 55.3364 10.6681 54.1783 10.6681C52.5355 10.6681 51.0476 11.3405 49.9745 12.421L43.2698 8.26737C43.4799 7.66353 43.5996 7.01835 43.5996 6.34485C43.5996 3.09591 40.9464 0.451904 37.6848 0.451904C34.4233 0.451904 31.77 3.09537 31.77 6.34485C31.77 8.28036 32.7159 9.99512 34.1659 11.0698L28.5347 23.8096C28.1697 23.739 27.7931 23.6992 27.4076 23.6992C26.103 23.6992 24.8998 24.1278 23.9202 24.8431L17.5731 19.3446C18.0216 18.5147 18.2769 17.5666 18.2769 16.5598C18.2769 13.3109 15.6236 10.6669 12.3621 10.6669C9.10051 10.6669 6.44724 13.3104 6.44724 16.5598C6.44724 17.7136 6.78704 18.7868 7.36371 19.6968L0.534487 26.5008C0.023986 27.0094 0.023986 27.8345 0.534487 28.3432C0.789731 28.5975 1.12481 28.7252 1.45885 28.7252C1.7934 28.7252 2.12796 28.5975 2.3832 28.3432L9.21243 21.5392C10.1258 22.1148 11.2039 22.4528 12.3621 22.4528C13.6678 22.4528 14.8726 22.0237 15.8521 21.3063L22.1976 26.8043C21.748 27.6347 21.4922 28.5844 21.4922 29.5917C21.4922 32.8407 24.1455 35.4847 27.407 35.4847C30.6686 35.4847 33.3218 32.8412 33.3218 29.5917C33.3218 27.6557 32.3754 25.9398 30.9243 24.8651L36.5555 12.1263C36.9216 12.1969 37.2987 12.2367 37.6847 12.2367C39.3291 12.2367 40.8176 11.5633 41.8916 10.4807L48.5947 14.6333C48.3841 15.2376 48.2633 15.8844 48.2633 16.5594C48.2633 19.8084 50.9166 22.4524 54.1781 22.4524C57.4391 22.4524 60.093 19.8089 60.093 16.5594C60.093 15.4056 59.7532 14.3313 59.176 13.4214L67.5319 5.09636C68.0424 4.58775 68.0424 3.7631 67.5319 3.25395C67.0214 2.74744 66.1944 2.74757 65.6829 3.25617ZM12.3632 19.8492C10.5434 19.8492 9.06331 18.3746 9.06331 16.562C9.06331 14.7495 10.5434 13.2749 12.3632 13.2749C14.1824 13.2749 15.6625 14.7495 15.6625 16.562C15.6625 18.3746 14.1824 19.8492 12.3632 19.8492ZM27.4084 32.8815C25.5891 32.8815 24.109 31.4069 24.109 29.5944C24.109 27.7818 25.5891 26.3073 27.4084 26.3073C29.2276 26.3073 30.7077 27.7818 30.7077 29.5944C30.7077 31.4069 29.2276 32.8815 27.4084 32.8815ZM37.686 9.63363C35.8662 9.63363 34.3862 8.15905 34.3862 6.34651C34.3862 4.53396 35.8662 3.05939 37.686 3.05939C39.5053 3.05939 40.9853 4.53396 40.9853 6.34651C40.9853 8.15905 39.5053 9.63363 37.686 9.63363ZM54.1793 19.8493C52.36 19.8493 50.8799 18.3747 50.8799 16.5622C50.8799 14.7496 52.36 13.2751 54.1793 13.2751C55.0879 13.2751 55.9125 13.6434 56.5096 14.2373C56.5101 14.2379 56.5106 14.2384 56.5117 14.2384C57.1089 14.8333 57.4786 15.6554 57.4786 16.5606C57.4791 18.3748 55.9991 19.8493 54.1793 19.8493Z"/>
</symbol><symbol viewBox="0 0 64 64" id="icon-4" xmlns="http://www.w3.org/2000/svg">
<path d="M8.56943 63.0196H43.2587C43.268 63.0196 43.2772 63.0196 43.287 63.0191L43.8908 62.9966C48.1649 62.9685 51.6422 59.4335 51.6422 55.1174L51.6417 18.8343H62.5134C62.9454 18.8343 63.2956 18.4816 63.2956 18.0466V6.82736C63.2956 3.0715 60.27 0.0159912 56.55 0.0159912H56.4475H56.4469H56.4458L13.1942 0.0385148C8.91962 0.0665315 5.44287 3.60157 5.44287 7.9177V47.4339L1.52168 47.4344C1.08968 47.4344 0.739502 47.7871 0.739502 48.2222V55.1126C0.739502 59.4722 4.25213 63.0193 8.56989 63.0193L8.56943 63.0196ZM61.7308 6.82731V17.2594H51.6406V6.43073C51.6406 3.76252 53.7957 1.59158 56.4449 1.59102H56.5496C59.4066 1.59102 61.7308 3.94056 61.7308 6.82731ZM7.00553 7.91776C7.00553 4.46398 9.78564 1.63601 13.1986 1.61351L52.2765 1.59318C50.932 2.77043 50.0773 4.50033 50.0773 6.43064V55.1174C50.0773 58.5712 47.2972 61.3992 43.857 61.4222L43.251 61.4442C39.7994 61.4404 36.9926 58.6013 36.9926 55.1125V48.2221C36.9926 47.7871 36.6425 47.4344 36.2105 47.4344L7.00603 47.4349L7.00553 7.91776ZM2.3021 49.009H35.4274V55.1117C35.4274 57.6991 36.6645 60.0004 38.573 61.444H8.56845C5.11307 61.444 2.30182 58.6034 2.30182 55.1117L2.3021 49.009Z"/>
<path d="M14.4592 40.437H12.2136C11.7816 40.437 11.4314 40.7896 11.4314 41.2247C11.4314 41.6598 11.7816 42.0125 12.2136 42.0125H14.4592C14.8912 42.0125 15.2413 41.6598 15.2413 41.2247C15.2413 40.7896 14.8912 40.437 14.4592 40.437Z"/>
<path d="M20.589 40.437H18.3435C17.9115 40.437 17.5613 40.7896 17.5613 41.2247C17.5613 41.6598 17.9115 42.0125 18.3435 42.0125H20.589C21.021 42.0125 21.3712 41.6598 21.3712 41.2247C21.3712 40.7896 21.021 40.437 20.589 40.437Z"/>
<path d="M26.7204 40.437H24.4748C24.0428 40.437 23.6926 40.7896 23.6926 41.2247C23.6926 41.6598 24.0428 42.0125 24.4748 42.0125H26.7204C27.1524 42.0125 27.5026 41.6598 27.5026 41.2247C27.502 40.7896 27.1518 40.437 26.7204 40.437Z"/>
<path d="M32.8503 40.437H30.6047C30.1727 40.437 29.8225 40.7896 29.8225 41.2247C29.8225 41.6598 30.1727 42.0125 30.6047 42.0125H32.8503C33.2823 42.0125 33.6324 41.6598 33.6324 41.2247C33.6324 40.7896 33.2823 40.437 32.8503 40.437Z"/>
<path d="M38.9816 42.012C39.4136 42.012 39.7638 41.6593 39.7638 41.2242C39.7638 40.7891 39.4136 40.4365 38.9816 40.4365H36.736C36.304 40.4365 35.9539 40.7891 35.9539 41.2242C35.9539 41.6593 36.304 42.012 36.736 42.012H38.9816Z"/>
<path d="M42.8664 42.012H45.112C45.544 42.012 45.8942 41.6593 45.8942 41.2242C45.8942 40.7891 45.544 40.4365 45.112 40.4365H42.8664C42.4344 40.4365 42.0842 40.7891 42.0842 41.2242C42.0842 41.6593 42.4344 42.012 42.8664 42.012Z"/>
<path d="M14.4592 33.4391H12.2136C11.7816 33.4391 11.4314 33.7918 11.4314 34.2268C11.4314 34.6619 11.7816 35.0146 12.2136 35.0146H14.4592C14.8912 35.0146 15.2413 34.6619 15.2413 34.2268C15.2413 33.7918 14.8912 33.4391 14.4592 33.4391Z"/>
<path d="M20.589 33.4391H18.3435C17.9115 33.4391 17.5613 33.7918 17.5613 34.2268C17.5613 34.6619 17.9115 35.0146 18.3435 35.0146H20.589C21.021 35.0146 21.3712 34.6619 21.3712 34.2268C21.3712 33.7918 21.021 33.4391 20.589 33.4391Z"/>
<path d="M26.7204 33.4391H24.4748C24.0428 33.4391 23.6926 33.7918 23.6926 34.2268C23.6926 34.6619 24.0428 35.0146 24.4748 35.0146H26.7204C27.1524 35.0146 27.5026 34.6619 27.5026 34.2268C27.502 33.7918 27.1518 33.4391 26.7204 33.4391Z"/>
<path d="M32.8503 33.4391H30.6047C30.1727 33.4391 29.8225 33.7918 29.8225 34.2268C29.8225 34.6619 30.1727 35.0146 30.6047 35.0146H32.8503C33.2823 35.0146 33.6324 34.6619 33.6324 34.2268C33.6324 33.7918 33.2823 33.4391 32.8503 33.4391Z"/>
<path d="M36.7363 35.0142H38.9819C39.4139 35.0142 39.764 34.6615 39.764 34.2264C39.764 33.7913 39.4139 33.4387 38.9819 33.4387H36.7363C36.3043 33.4387 35.9541 33.7913 35.9541 34.2264C35.9541 34.6615 36.3043 35.0142 36.7363 35.0142Z"/>
<path d="M42.8664 35.0142H45.112C45.544 35.0142 45.8942 34.6615 45.8942 34.2264C45.8942 33.7913 45.544 33.4387 45.112 33.4387H42.8664C42.4344 33.4387 42.0842 33.7913 42.0842 34.2264C42.0842 34.6615 42.4344 35.0142 42.8664 35.0142Z"/>
<path d="M14.4592 26.4412H12.2136C11.7816 26.4412 11.4314 26.7939 11.4314 27.229C11.4314 27.6641 11.7816 28.0168 12.2136 28.0168H14.4592C14.8912 28.0168 15.2413 27.6641 15.2413 27.229C15.2413 26.7939 14.8912 26.4412 14.4592 26.4412Z"/>
<path d="M20.589 26.4412H18.3435C17.9115 26.4412 17.5613 26.7939 17.5613 27.229C17.5613 27.6641 17.9115 28.0168 18.3435 28.0168H20.589C21.021 28.0168 21.3712 27.6641 21.3712 27.229C21.3712 26.7939 21.021 26.4412 20.589 26.4412Z"/>
<path d="M26.7204 26.4412H24.4748C24.0428 26.4412 23.6926 26.7939 23.6926 27.229C23.6926 27.6641 24.0428 28.0168 24.4748 28.0168H26.7204C27.1524 28.0168 27.5026 27.6641 27.5026 27.229C27.502 26.7939 27.1518 26.4412 26.7204 26.4412Z"/>
<path d="M32.8503 26.4412H30.6047C30.1727 26.4412 29.8225 26.7939 29.8225 27.229C29.8225 27.6641 30.1727 28.0168 30.6047 28.0168H32.8503C33.2823 28.0168 33.6324 27.6641 33.6324 27.229C33.6324 26.7939 33.2823 26.4412 32.8503 26.4412Z"/>
<path d="M36.7363 28.0163H38.9819C39.4139 28.0163 39.764 27.6636 39.764 27.2286C39.764 26.7935 39.4139 26.4408 38.9819 26.4408H36.7363C36.3043 26.4408 35.9541 26.7935 35.9541 27.2286C35.9541 27.6642 36.3043 28.0163 36.7363 28.0163Z"/>
<path d="M42.8664 28.0163H45.112C45.544 28.0163 45.8942 27.6636 45.8942 27.2286C45.8942 26.7935 45.544 26.4408 45.112 26.4408H42.8664C42.4344 26.4408 42.0842 26.7935 42.0842 27.2286C42.0842 27.6642 42.4344 28.0163 42.8664 28.0163Z"/>
<path d="M14.4592 19.4434H12.2136C11.7816 19.4434 11.4314 19.796 11.4314 20.2311C11.4314 20.6662 11.7816 21.0189 12.2136 21.0189H14.4592C14.8912 21.0189 15.2413 20.6662 15.2413 20.2311C15.2413 19.796 14.8912 19.4434 14.4592 19.4434Z"/>
<path d="M20.589 19.4434H18.3435C17.9115 19.4434 17.5613 19.796 17.5613 20.2311C17.5613 20.6662 17.9115 21.0189 18.3435 21.0189H20.589C21.021 21.0189 21.3712 20.6662 21.3712 20.2311C21.3712 19.796 21.021 19.4434 20.589 19.4434Z"/>
<path d="M26.7204 19.4434H24.4748C24.0428 19.4434 23.6926 19.796 23.6926 20.2311C23.6926 20.6662 24.0428 21.0189 24.4748 21.0189H26.7204C27.1524 21.0189 27.5026 20.6662 27.5026 20.2311C27.502 19.796 27.1518 19.4434 26.7204 19.4434Z"/>
<path d="M32.8503 19.4434H30.6047C30.1727 19.4434 29.8225 19.796 29.8225 20.2311C29.8225 20.6662 30.1727 21.0189 30.6047 21.0189H32.8503C33.2823 21.0189 33.6324 20.6662 33.6324 20.2311C33.6324 19.796 33.2823 19.4434 32.8503 19.4434Z"/>
<path d="M36.7363 21.0199H38.9819C39.4139 21.0199 39.764 20.6672 39.764 20.2321C39.764 19.797 39.4139 19.4443 38.9819 19.4443H36.7363C36.3043 19.4443 35.9541 19.797 35.9541 20.2321C35.9541 20.6672 36.3043 21.0199 36.7363 21.0199Z"/>
<path d="M42.8664 21.0199H45.112C45.544 21.0199 45.8942 20.6672 45.8942 20.2321C45.8942 19.797 45.544 19.4443 45.112 19.4443H42.8664C42.4344 19.4443 42.0842 19.797 42.0842 20.2321C42.0842 20.6672 42.4344 21.0199 42.8664 21.0199Z"/>
<path d="M14.4592 12.447H12.2136C11.7816 12.447 11.4314 12.7997 11.4314 13.2348C11.4314 13.6699 11.7816 14.0225 12.2136 14.0225H14.4592C14.8912 14.0225 15.2413 13.6699 15.2413 13.2348C15.2413 12.7997 14.8912 12.447 14.4592 12.447Z"/>
<path d="M20.589 12.447H18.3435C17.9115 12.447 17.5613 12.7997 17.5613 13.2348C17.5613 13.6699 17.9115 14.0225 18.3435 14.0225H20.589C21.021 14.0225 21.3712 13.6699 21.3712 13.2348C21.3712 12.7997 21.021 12.447 20.589 12.447Z"/>
<path d="M26.7204 12.447H24.4748C24.0428 12.447 23.6926 12.7997 23.6926 13.2348C23.6926 13.6699 24.0428 14.0225 24.4748 14.0225H26.7204C27.1524 14.0225 27.5026 13.6699 27.5026 13.2348C27.502 12.7997 27.1518 12.447 26.7204 12.447Z"/>
<path d="M32.8503 12.447H30.6047C30.1727 12.447 29.8225 12.7997 29.8225 13.2348C29.8225 13.6699 30.1727 14.0225 30.6047 14.0225H32.8503C33.2823 14.0225 33.6324 13.6699 33.6324 13.2348C33.6324 12.7997 33.2823 12.447 32.8503 12.447Z"/>
<path d="M36.7363 14.0221H38.9819C39.4139 14.0221 39.764 13.6694 39.764 13.2343C39.764 12.7992 39.4139 12.4465 38.9819 12.4465H36.7363C36.3043 12.4465 35.9541 12.7992 35.9541 13.2343C35.9541 13.6694 36.3043 14.0221 36.7363 14.0221Z"/>
<path d="M42.8664 14.0221H45.112C45.544 14.0221 45.8942 13.6694 45.8942 13.2343C45.8942 12.7992 45.544 12.4465 45.112 12.4465H42.8664C42.4344 12.4465 42.0842 12.7992 42.0842 13.2343C42.0842 13.6694 42.4344 14.0221 42.8664 14.0221Z"/>
</symbol><symbol viewBox="0 0 24 24" id="instagram" xmlns="http://www.w3.org/2000/svg">
<g clip-path="url(#hclip0_4725_402)">
<path d="M16.5 0H7.5C3.3585 0 0 3.3585 0 7.5V16.5C0 20.6415 3.3585 24 7.5 24H16.5C20.6415 24 24 20.6415 24 16.5V7.5C24 3.3585 20.6415 0 16.5 0ZM21.75 16.5C21.75 19.395 19.395 21.75 16.5 21.75H7.5C4.605 21.75 2.25 19.395 2.25 16.5V7.5C2.25 4.605 4.605 2.25 7.5 2.25H16.5C19.395 2.25 21.75 4.605 21.75 7.5V16.5Z"/>
<path d="M11.9996 6.00024C8.68613 6.00024 5.99963 8.68674 5.99963 12.0002C5.99963 15.3137 8.68613 18.0002 11.9996 18.0002C15.3131 18.0002 17.9996 15.3137 17.9996 12.0002C17.9996 8.68674 15.3131 6.00024 11.9996 6.00024ZM11.9996 15.7502C9.93263 15.7502 8.24963 14.0672 8.24963 12.0002C8.24963 9.93174 9.93263 8.25024 11.9996 8.25024C14.0666 8.25024 15.7496 9.93174 15.7496 12.0002C15.7496 14.0672 14.0666 15.7502 11.9996 15.7502Z"/>
<path d="M18.6466 6.32542C19.0746 6.21673 19.3334 5.78169 19.2247 5.35373C19.1161 4.92577 18.681 4.66694 18.2531 4.77562C17.8251 4.88431 17.5663 5.31935 17.6749 5.74731C17.7836 6.17527 18.2187 6.4341 18.6466 6.32542Z"/>
</g>
<defs>
<clipPath id="hclip0_4725_402">
<rect width="24" height="24"/>
</clipPath>
</defs>
</symbol><symbol viewBox="0 0 6 8" id="logos-bitcoin" xmlns="http://www.w3.org/2000/svg">
<path d="M5.49908 3.52795C5.60839 2.78467 5.04437 2.38243 4.26612 2.11572L4.51971 1.10574L3.9076 0.952717L3.66276 1.93646C3.50099 1.89711 3.33484 1.85776 3.1687 1.82279L3.41354 0.834668L2.80143 0.681641L2.55222 1.68725C2.41668 1.65664 2.28551 1.62604 2.15872 1.59543V1.59106L1.31051 1.38119L1.14874 2.03702C1.14874 2.03702 1.60345 2.14196 1.5947 2.14633C1.84392 2.20754 1.88764 2.37368 1.8789 2.50485L1.59033 3.65474C1.60782 3.65911 1.62968 3.66348 1.65592 3.6766C1.63405 3.67223 1.61219 3.66786 1.59033 3.65911L1.18809 5.26808C1.15748 5.34241 1.07878 5.45609 0.908269 5.41236C0.912641 5.42111 0.462304 5.30306 0.462304 5.30306L0.15625 6.00698L0.956363 6.20811C1.10502 6.24746 1.2493 6.28243 1.39358 6.32178L1.14 7.34051L1.7521 7.49353L2.00569 6.48355C2.17184 6.52728 2.33798 6.571 2.49538 6.61035L2.24616 7.61596L2.85827 7.76898L3.11186 6.75026C4.16119 6.94701 4.94819 6.86831 5.2761 5.91954C5.5428 5.15878 5.26298 4.71718 4.71209 4.42862C5.1187 4.3368 5.42038 4.0701 5.49908 3.52795ZM4.09561 5.49544C3.9076 6.2562 2.62217 5.84521 2.20681 5.74028L2.54347 4.38927C2.95883 4.4942 4.29673 4.6997 4.09561 5.49544ZM4.28798 3.51483C4.11309 4.21001 3.04628 3.85586 2.70087 3.76842L3.00693 2.5442C3.35233 2.63164 4.46724 2.79342 4.28798 3.51483Z"/>
</symbol><symbol viewBox="0 0 6 5" id="triangle-arrow" xmlns="http://www.w3.org/2000/svg">
<path d="M3 4.5L5.59808 0H0.401924L3 4.5Z"/>
</symbol><symbol viewBox="0 0 24 20" id="twitter" xmlns="http://www.w3.org/2000/svg">
<path d="M7.81926 19.0107C16.3103 19.0107 20.9536 11.9762 20.9536 5.87637C20.9536 5.67658 20.9495 5.47761 20.9406 5.27975C21.8418 4.62808 22.6252 3.81488 23.2433 2.88926C22.4162 3.25706 21.5259 3.50432 20.5923 3.61619C21.5453 3.04447 22.2771 2.14046 22.6221 1.06279C21.7302 1.59158 20.7424 1.97575 19.6909 2.18325C18.8485 1.28598 17.6491 0.724854 16.3211 0.724854C13.772 0.724854 11.7046 2.79212 11.7046 5.34043C11.7046 5.70286 11.7452 6.05511 11.8243 6.39305C7.98768 6.2 4.58544 4.36321 2.30889 1.56998C1.91261 2.25205 1.68392 3.04461 1.68392 3.89029C1.68392 5.49165 2.49891 6.90574 3.73811 7.7327C2.98078 7.70944 2.2694 7.50153 1.64746 7.15548C1.64677 7.17488 1.64677 7.19373 1.64677 7.21437C1.64677 9.45005 3.23795 11.3167 5.35048 11.7397C4.96246 11.8452 4.5542 11.902 4.13316 11.902C3.83622 11.902 3.54672 11.8729 3.26547 11.8188C3.85314 13.653 5.55743 14.9877 7.57791 15.0251C5.99788 16.2635 4.00753 17.0011 1.84436 17.0011C1.47229 17.0011 1.1045 16.9798 0.743164 16.9372C2.78621 18.2467 5.2122 19.0109 7.8194 19.0109"/>
</symbol><symbol viewBox="0 0 22 23" id="world" xmlns="http://www.w3.org/2000/svg">
<path fill-rule="evenodd" clip-rule="evenodd" d="M11 2.5C6.02944 2.5 2 6.52944 2 11.5C2 16.4706 6.02944 20.5 11 20.5C15.9706 20.5 20 16.4706 20 11.5C20 6.52944 15.9706 2.5 11 2.5ZM0 11.5C0 5.42487 4.92487 0.5 11 0.5C17.0751 0.5 22 5.42487 22 11.5C22 17.5751 17.0751 22.5 11 22.5C4.92487 22.5 0 17.5751 0 11.5Z"/>
<path fill-rule="evenodd" clip-rule="evenodd" d="M0 11.5C0 10.9477 0.447715 10.5 1 10.5H21C21.5523 10.5 22 10.9477 22 11.5C22 12.0523 21.5523 12.5 21 12.5H1C0.447715 12.5 0 12.0523 0 11.5Z"/>
<path fill-rule="evenodd" clip-rule="evenodd" d="M8.00023 11.5001C8.06877 14.5749 9.12625 17.5353 11 19.9493C12.8737 17.5353 13.9312 14.5749 13.9998 11.5001C13.9312 8.42527 12.8737 5.46495 11 3.0509C9.12625 5.46495 8.06877 8.42527 8.00023 11.5001ZM11 1.50011L10.2617 0.825684C7.59689 3.74301 6.08251 7.52896 6.00022 11.4793C5.99993 11.4932 5.99993 11.5071 6.00022 11.5209C6.08251 15.4713 7.59689 19.2572 10.2617 22.1745C10.4511 22.3819 10.7191 22.5001 11 22.5001C11.2809 22.5001 11.5489 22.3819 11.7383 22.1745C14.4031 19.2572 15.9175 15.4713 15.9998 11.5209C16.0001 11.5071 16.0001 11.4932 15.9998 11.4793C15.9175 7.52896 14.4031 3.74301 11.7383 0.825684L11 1.50011Z"/>
</symbol></svg>