<svg width="512" height="512" viewBox="0 0 512 512" fill="none" xmlns="http://www.w3.org/2000/svg">
<g clip-path="url(#clip0_5042_11)">
<path d="M504.348 317.914C470.144 455.13 331.122 538.542 194.102 504.336C56.8821 470.132 -26.5299 331.116 7.67607 194.098C41.8801 56.8816 180.7 -26.5304 317.92 7.6756C454.94 41.6796 538.554 180.696 504.348 317.914Z" fill="url(#paint0_linear_5042_11)"/>
<path d="M377.917 224.1C382.917 190.1 357.117 171.7 321.517 159.5L333.117 113.3L305.117 106.3L293.917 151.3C286.517 149.5 278.917 147.7 271.317 146.1L282.517 100.9L254.517 93.8997L243.117 139.9C236.917 138.5 230.917 137.1 225.117 135.7V135.5L186.317 125.9L178.917 155.9C178.917 155.9 199.717 160.7 199.317 160.9C210.717 163.7 212.717 171.3 212.317 177.3L199.117 229.9C199.917 230.1 200.917 230.3 202.117 230.9C201.117 230.7 200.117 230.5 199.117 230.1L180.717 303.7C179.317 307.1 175.717 312.3 167.917 310.3C168.117 310.7 147.517 305.3 147.517 305.3L133.517 337.5L170.117 346.7C176.917 348.5 183.517 350.1 190.117 351.9L178.517 398.5L206.517 405.5L218.117 359.3C225.717 361.3 233.317 363.3 240.517 365.1L229.117 411.1L257.117 418.1L268.717 371.5C316.717 380.5 352.717 376.9 367.717 333.5C379.917 298.7 367.117 278.5 341.917 265.3C360.517 261.1 374.317 248.9 377.917 224.1ZM313.717 314.1C305.117 348.9 246.317 330.1 227.317 325.3L242.717 263.5C261.717 268.3 322.917 277.7 313.717 314.1ZM322.517 223.5C314.517 255.3 265.717 239.1 249.917 235.1L263.917 179.1C279.717 183.1 330.717 190.5 322.517 223.5Z" fill="black"/>
</g>
<defs>
<linearGradient id="paint0_linear_5042_11" x1="255.868" y1="-0.11702" x2="255.868" y2="511.954" gradientUnits="userSpaceOnUse">
<stop stop-color="#32D3C9"/>
<stop offset="1" stop-color="#62F98C"/>
</linearGradient>
<clipPath id="clip0_5042_11">
<rect width="512" height="512" fill="white"/>
</clipPath>
</defs>
</svg>
